<svg id="Layer_1" data-name="Layer 1" xmlns="http://www.w3.org/2000/svg" viewBox="0 0 511.89 137.08"><defs><style>.cls-1{fill:#fff;}.cls-2{fill:#2563eb;}</style></defs><path class="cls-1" d="M156,215.6V276q0-22.44,0-44.87c-16.06,8-32.73,5.89-49.79-4.52l-.83,1.17c-1.48,2.09-3.05,4.27-4.82,6.75-3.1-9.31-6-18.13-9-27.2l13.87-.33,14.8-.34L114.41,215c7.13,6.63,22,9.92,34.76,4.41A37.76,37.76,0,0,0,156,215.6Z" transform="translate(-54.74 -146.36)"/><path class="cls-1" d="M119.17,189.31l-13.8.32L90.5,190c2-3,3.92-5.65,5.77-8.33-7.13-6.63-22-9.92-34.77-4.41A37.76,37.76,0,0,0,54.74,181v-15.5c16.06-7.94,32.71-5.85,49.74,4.55.29-.41.58-.83.89-1.25l4.74-6.66C113.22,171.41,116.16,180.23,119.17,189.31Z" transform="translate(-54.74 -146.36)"/><path class="cls-2" d="M156,231.11c-16.06,8-32.73,5.89-49.79-4.52l-.83,1.17c-1.48,2.09-3.05,4.27-4.82,6.75-3.1-9.31-6-18.13-9-27.2l13.87-.33,14.8-.34L114.41,215c7.13,6.63,22,9.92,34.76,4.41A37.76,37.76,0,0,0,156,215.6V159.69c0-7.88-5.54-13.33-13.41-13.33h-74c-8.48,0-13.87,5.4-13.87,13.87v5.24c16.06-7.94,32.71-5.85,49.74,4.55.29-.41.58-.83.89-1.25l4.74-6.66c3.11,9.3,6,18.12,9.06,27.2l-13.8.32L90.5,190c2-3,3.92-5.65,5.77-8.33-7.13-6.63-22-9.92-34.77-4.41A37.76,37.76,0,0,0,54.74,181q0,47.09,0,94.17c0,.33,0,.65,0,1,.08,3.09,1.41,5.47,4.3,6.68a7.54,7.54,0,0,0,2.92.63,7.26,7.26,0,0,0,5-2.16Q80,269.16,93,257.06l12.36-11.46c.48.43.83.73,1.16,1.05q18.6,17.25,37.19,34.54a7.47,7.47,0,0,0,5.11,2.25,7.34,7.34,0,0,0,2.91-.64c2.91-1.25,4.26-3.63,4.26-6.82Q156,253.54,156,231.11Z" transform="translate(-54.74 -146.36)"/><path class="cls-2" d="M200.38,181.93l12.5,38.95,12.46-38.95H243.1v56H229.57V224.84l1.31-26.76-13.54,39.84h-8.92L194.84,198l1.31,26.8v13.08h-13.5v-56Z" transform="translate(-54.74 -146.36)"/><path class="cls-2" d="M274.52,237.92a14.8,14.8,0,0,1-1.23-3.73q-3.57,4.5-10,4.5a14.75,14.75,0,0,1-10-3.56,11.3,11.3,0,0,1-4.12-8.94q0-6.76,5-10.23t14.54-3.46h4v-2.2q0-5.76-5-5.76-4.61,0-4.61,4.56h-13a11.63,11.63,0,0,1,5.13-9.8q5.15-3.75,13.1-3.76T281,199.42a13.48,13.48,0,0,1,4.73,10.66V228.5q.07,5.73,1.77,8.76v.66Zm-8.11-8.46a7.28,7.28,0,0,0,4-1,6.54,6.54,0,0,0,2.29-2.35v-6.65H269q-6.78,0-6.77,6.08a3.71,3.71,0,0,0,1.19,2.86A4.33,4.33,0,0,0,266.41,229.46Z" transform="translate(-54.74 -146.36)"/><path class="cls-2" d="M318.05,208l-4.26-.31q-6.12,0-7.85,3.85v26.34H293V196.31h12.15l.43,5.34q3.26-6.1,9.11-6.11a12.64,12.64,0,0,1,3.62.46Z" transform="translate(-54.74 -146.36)"/><path class="cls-2" d="M339.43,222.42l-3.65,3.65v11.85h-13V178.81h13v31.38l1.31-1.73,9.77-12.15h15.53l-14.57,17.11,15.53,24.5H348.51Z" transform="translate(-54.74 -146.36)"/><path d="M395.27,223a5.56,5.56,0,0,0-2.09-4.62,26.27,26.27,0,0,0-7.37-3.42,71.23,71.23,0,0,1-8.61-3.42q-10.89-5.36-10.88-14.69a13.14,13.14,0,0,1,2.71-8.21,17.48,17.48,0,0,1,7.67-5.54,29.81,29.81,0,0,1,11.15-2,26.24,26.24,0,0,1,10.83,2.15,17.15,17.15,0,0,1,7.44,6.14,16,16,0,0,1,2.65,9.09H395.31a6.78,6.78,0,0,0-2.1-5.31,8.17,8.17,0,0,0-5.67-1.88,9.24,9.24,0,0,0-5.71,1.59,4.71,4.71,0,0,0,.21,8q2.31,1.75,8.12,3.62a49,49,0,0,1,9.53,4q9.07,5.22,9.08,14.42a13.69,13.69,0,0,1-5.54,11.54q-5.53,4.19-15.19,4.19a30.24,30.24,0,0,1-12.32-2.44,18.58,18.58,0,0,1-8.31-6.7,17.4,17.4,0,0,1-2.79-9.78h13.54c0,3,.77,5.21,2.33,6.63s4.07,2.13,7.55,2.13a8.7,8.7,0,0,0,5.29-1.44A4.76,4.76,0,0,0,395.27,223Z" transform="translate(-54.74 -146.36)"/><path d="M431.73,219.77l6.92-23.46h13.88l-17,48.57-.73,1.77q-3.61,8.07-12.76,8.07a20.3,20.3,0,0,1-5.35-.76v-9.24h1.69a8.94,8.94,0,0,0,4.17-.78,4.77,4.77,0,0,0,2.14-2.83l1-2.77-14.46-42h13.84Z" transform="translate(-54.74 -146.36)"/><path d="M467.8,196.31l.42,4.88a14.1,14.1,0,0,1,11.88-5.65q6.51,0,9.71,3.88t3.33,11.69v26.81h-13V211.65a7,7,0,0,0-1.27-4.63q-1.26-1.49-4.61-1.48a6.17,6.17,0,0,0-5.65,3v29.38h-13V196.31Z" transform="translate(-54.74 -146.36)"/><path d="M517.91,228.69a5.75,5.75,0,0,0,4.23-1.48,5.47,5.47,0,0,0,1.46-4.14h12.15a14.37,14.37,0,0,1-4.9,11.23q-4.9,4.39-12.64,4.39-9.08,0-14.3-5.69t-5.23-15.77v-.54A25.37,25.37,0,0,1,501,205.56a17,17,0,0,1,6.72-7.42,20,20,0,0,1,10.38-2.6q8.11,0,12.88,4.5t4.77,12.19H523.6a7.12,7.12,0,0,0-1.58-5,5.45,5.45,0,0,0-4.23-1.73q-5,0-5.88,6.42a45.23,45.23,0,0,0-.27,5.62q0,6.25,1.5,8.69A5.2,5.2,0,0,0,517.91,228.69Z" transform="translate(-54.74 -146.36)"/><path d="M566.4,208l-4.27-.31c-4.08,0-6.69,1.28-7.85,3.85v26.34H541.33V196.31h12.15l.42,5.34q3.27-6.1,9.11-6.11a12.59,12.59,0,0,1,3.62.46Z" transform="translate(-54.74 -146.36)"/></svg>