<svg viewBox="0 0 48 48" xmlns="http://www.w3.org/2000/svg">
  <circle cx="24" cy="24" r="20" fill="#4CAF50"/>
  <path fill="#F44336" d="M24,4C12.95,4,4,12.95,4,24c0,3.31,0.81,6.43,2.23,9.18L24,24V4z"/>
  <path fill="#FFEB3B" d="M24,4v20l17.77,9.18C43.19,30.43,44,27.31,44,24C44,12.95,35.05,4,24,4z"/>
  <path fill="#4CAF50" d="M6.23,33.18C9.38,39.49,16.18,44,24,44c7.82,0,14.62-4.51,17.77-10.82L24,24L6.23,33.18z"/>
  <circle cx="24" cy="24" r="8" fill="#fff"/>
  <circle cx="24" cy="24" r="6" fill="#2196F3"/>
</svg>
