<svg id="Layer_1" data-name="Layer 1" xmlns="http://www.w3.org/2000/svg" viewBox="0 0 600 600" width="128" height="128"><defs><style>.cls-1{fill:none;}.cls-2{fill:#fff;}.cls-3{fill:#2563eb;}</style></defs><rect class="cls-1" width="600" height="600"/><path class="cls-2" d="M477.5,302.45V514.13q0-78.67,0-157.3c-56.3,28-114.75,20.65-174.55-15.85-.95,1.37-2,2.74-2.91,4.1-5.19,7.33-10.69,15-16.9,23.67-10.87-32.64-21.17-63.56-31.73-95.36,16.38-.42,32.47-.77,48.63-1.16,17.11-.38,34.25-.8,51.88-1.19-7.18,10.41-13.7,19.81-20.19,29.21,25,23.24,77.12,34.77,121.86,15.46a132.64,132.64,0,0,0,23.91-13.26Z"/><path class="cls-2" d="M348.39,210.29,300,211.41c-17.18.39-34.43.81-52.13,1.19,7.18-10.41,13.74-19.8,20.23-29.2-25-23.24-77.16-34.78-121.9-15.46a132.61,132.61,0,0,0-23.7,13.11V126.71c56.31-27.83,114.68-20.51,174.38,16,1-1.43,2-2.91,3.12-4.38,5.12-7.19,10.51-14.79,16.61-23.35C327.53,147.54,337.83,178.46,348.39,210.29Z"/><path class="cls-3" d="M477.47,356.83c-56.3,28-114.75,20.65-174.55-15.85-.95,1.37-2,2.74-2.91,4.1-5.19,7.33-10.69,15-16.9,23.67-10.87-32.64-21.17-63.56-31.73-95.36,16.38-.42,32.47-.77,48.63-1.16,17.11-.38,34.25-.8,51.88-1.19-7.18,10.41-13.7,19.81-20.19,29.21,25,23.24,77.12,34.77,121.86,15.46a132.64,132.64,0,0,0,23.91-13.26v-196c0-27.63-19.42-46.73-47-46.73H171.14c-29.73,0-48.63,18.93-48.63,48.62v18.37c56.31-27.83,114.68-20.51,174.38,16,1-1.43,2-2.91,3.12-4.38,5.12-7.19,10.51-14.79,16.61-23.35,10.91,32.61,21.21,63.53,31.77,95.36L300,211.41c-17.18.39-34.43.81-52.13,1.19,7.18-10.41,13.74-19.8,20.23-29.2-25-23.24-77.16-34.78-121.9-15.46a132.61,132.61,0,0,0-23.7,13.11q.06,165.08,0,330.13c0,1.16,0,2.28,0,3.44.28,10.83,4.95,19.18,15.08,23.42a26.46,26.46,0,0,0,10.24,2.21c6.27,0,12.12-2.6,17.49-7.58Q211,490.24,256.68,447.8c14.3-13.29,28.64-26.57,43.33-40.17,1.68,1.5,2.91,2.55,4.06,3.68q65.22,60.46,130.38,121.08c5.51,5.12,11.5,7.89,17.92,7.89a25.87,25.87,0,0,0,10.2-2.24c10.2-4.38,14.93-12.73,14.93-23.91Q477.46,435.46,477.47,356.83Z"/></svg>
